Complete name                            : 13.Eerie.2013.DVDRip.XviD-IGUANA
Format                                   : AVI
Format/Info                              : Audio Video Interleave
File size                                : 170 MiB
Duration                                 : 1h 26mn
Overall bit rate mode                    : Variable
Overall bit rate                         : 274 Kbps
Writing application                      : VirtualDubMod 1.5.10.2 (build 2540/release)
Writing library                          : VirtualDubMod build 2540/release

Video
ID                                       : 0
Format                                   : MPEG-4 Visual
Format profile                           : Advanced Simple@L5
Format settings, BVOP                    : 2
Format settings, QPel                    : No
Format settings, GMC                     : No warppoints
Format settings, Matrix                  : Default (H.263)
Muxing mode                              : Packed bitstream
Codec ID                                 : XVID
Codec ID/Hint                            : XviD
Duration                                 : 1h 26mn
Bit rate                                 : 62.4 Kbps
Width                                    : 640 pixels
Height                                   : 352 pixels
Display aspect ratio                     : 16:9
Frame rate                               : 23.976 fps
Color space                              : YUV
Chroma subsampling                       : 4:2:0
Bit depth                                : 8 bits
Scan type                                : Progressive
Compression mode                         : Lossy
Bits/(Pixel*Frame)                       : 0.012
Stream size                              : 38.6 MiB (23%)
Writing library                          : XviD 64

Audio
ID                                       : 1
Format                                   : MPEG Audio
Format version                           : Version 1
Format profile                           : Layer 3
Mode                                     : Joint stereo
Mode extension                           : MS Stereo
Codec ID                                 : 55
Codec ID/Hint                            : MP3
Duration                                 : 1h 26mn
Bit rate mode                            : Variable
Bit rate                                 : 192 Kbps
Channel(s)                               : 2 channels
Sampling rate                            : 48.0 KHz
Compression mode                         : Lossy
Stream size                              : 119 MiB (70%)
Alignment                                : Aligned on interleaves
Writing library                          : LAME3.90.
Encoding settings                        : -m j -V 4 -q 2 -lowpass 19.6 --abr 192


Supplier:IGUANA Genre.......:Horror
Ripper..:IGUANA Runtime.....:86 min
Format..:XviD IMDB Rating.:N/A/10
Source..:DVD R1 Store Date..:04/02/13
Size....: Release Date:04/03/13
 
http://www.imdb.com/title/tt2082152/

Cast: Katharine Isabelle, Brendan Fehr, Brendan Fletcher


Plot: Six ambitious forensic undergrads are pitted
against one another on a scientific expedition
to a remote island

Screens: 
 
http://www.shotpix.com/images/88761322229555074223.png
 
http://www.shotpix.com/images/25593294283909684945.png
 
http://www.shotpix.com/images/71202811749812150100.png
 
http://www.shotpix.com/images/00954268279667573930.png
 
http://www.shotpix.com/images/14239626365897482631.png